<svg id="Layer_1" height="512" viewBox="0 0 256 256" width="512" xmlns="http://www.w3.org/2000/svg"><g><g><path d="m200.246 253v-24.64c0-18.092-14.666-32.758-32.758-32.758h-78.973c-18.092 0-32.758 14.666-32.758 32.758v24.64z" fill="#a4c9ff"/></g><g><path d="m200.246 255h-144.489c-1.104 0-2-.896-2-2v-24.64c0-19.166 15.592-34.758 34.758-34.758h78.974c19.165 0 34.758 15.592 34.758 34.758v24.64c-.001 1.104-.896 2-2.001 2zm-142.489-4h140.489v-22.64c0-16.96-13.798-30.758-30.758-30.758h-78.973c-16.96 0-30.758 13.798-30.758 30.758z" fill="#3762cc"/></g><g><path d="m209.121 123.403h-162.242v-39.282c0-44.802 36.319-81.121 81.121-81.121 44.802 0 81.121 36.319 81.121 81.121z" fill="#4671c6"/></g><g><path d="m209.121 125.403h-162.242c-1.104 0-2-.896-2-2v-39.282c0-45.833 37.288-83.121 83.121-83.121s83.121 37.288 83.121 83.121v39.282c0 1.104-.895 2-2 2zm-160.242-4h158.242v-37.282c0-43.627-35.493-79.121-79.121-79.121-43.627 0-79.121 35.494-79.121 79.121z" fill="#3762cc"/></g><g><path d="m128 190.051c-8.456 0-16.563-1.482-24.089-4.183v11.953c0 13.304 10.785 24.089 24.089 24.089 13.304 0 24.089-10.785 24.089-24.089v-11.953c-7.526 2.701-15.633 4.183-24.089 4.183z" fill="#f9cfcf"/></g><g><path d="m128 223.911c-14.386 0-26.089-11.704-26.089-26.089v-11.953c0-.651.317-1.261.849-1.636s1.214-.468 1.826-.247c3.301 1.184 6.715 2.123 10.146 2.791 4.346.846 8.81 1.275 13.268 1.275 8.02 0 15.896-1.368 23.413-4.065.61-.221 1.294-.128 1.826.247.533.375.85.985.85 1.636v11.953c0 14.384-11.703 26.088-26.089 26.088zm-22.089-35.259v9.169c0 12.18 9.909 22.089 22.089 22.089s22.089-9.909 22.089-22.089v-9.168c-7.137 2.256-14.554 3.398-22.089 3.398-4.714 0-9.435-.454-14.032-1.348-2.71-.527-5.41-1.215-8.057-2.051z" fill="#3762cc"/></g><g><path d="m197.952 97.328c-53.662 2.954-78.534-22.919-84.394-30.155-.206-.255-.596.001-.466.302l11.722 27.127c.742 1.718-.762 3.583-2.596 3.212-32.757-6.621-42.787-37.676-33.947-61.792-16.744 12.131-28.414 32.791-28.414 61.229-12.454 0-21.22 9.804-21.22 20.884 0 10.681 7.711 20.884 23.293 20.884 7.453 29.552 34.204 51.429 66.07 51.429 31.867 0 58.617-21.877 66.07-51.429 15.73 0 23.293-10.322 23.293-20.884 0-10.578-7.973-19.91-19.411-20.807z" fill="#f9cfcf"/></g><g><path d="m128 192.447c-31.671 0-59.259-21.082-67.62-51.461-16.299-.684-23.743-12.163-23.743-22.852 0-12.173 9.179-21.845 21.238-22.805.484-26.01 10.818-47.593 29.222-60.927.711-.516 1.678-.506 2.38.024.702.531.974 1.458.671 2.284-4.683 12.776-3.715 27.133 2.59 38.405 6.064 10.842 16.395 18.013 29.875 20.737.045.01.185.038.312-.119.086-.106.104-.22.052-.339l-11.722-27.127c-.459-1.065-.073-2.271.917-2.87.98-.594 2.217-.376 2.939.515 5.839 7.212 27.807 29.648 74.392 29.65 2.697 0 5.473-.075 8.337-.233.091-.005.178-.004.267.003 12.118.95 21.256 10.752 21.256 22.8 0 10.688-7.443 22.168-23.743 22.852-8.361 30.381-35.949 51.463-67.62 51.463zm-43.459-150.866c-14.677 13.057-22.684 32.574-22.684 55.67 0 1.104-.896 2-2 2-10.778 0-19.22 8.295-19.22 18.884 0 9.399 6.584 18.884 21.292 18.884.916 0 1.715.623 1.939 1.511 7.412 29.391 33.784 49.918 64.131 49.918s56.719-20.527 64.131-49.918c.225-.888 1.023-1.511 1.939-1.511 14.709 0 21.293-9.484 21.293-18.884 0-9.896-7.488-17.958-17.439-18.802-42.693 2.313-67.481-13.283-79.213-23.895l7.938 18.371c.641 1.482.405 3.185-.616 4.445-1.019 1.256-2.633 1.838-4.212 1.521-18.519-3.743-27.936-14.414-32.574-22.706-5.85-10.461-7.49-23.336-4.705-35.488z" fill="#3762cc"/></g><g><ellipse cx="84.001" cy="140.866" fill="#f9a7a7" rx="12.124" ry="6.768"/></g><g><path d="m175.78 125.521c-1.104 0-2-.896-2-2 0-5.731-4.663-10.394-10.395-10.394s-10.394 4.663-10.394 10.394c0 1.104-.896 2-2 2s-2-.896-2-2c0-7.937 6.457-14.394 14.394-14.394 7.938 0 14.395 6.457 14.395 14.394 0 1.105-.895 2-2 2z" fill="#3762cc"/></g><g><path d="m105.008 125.521c-1.104 0-2-.896-2-2 0-5.731-4.663-10.394-10.394-10.394s-10.394 4.663-10.394 10.394c0 1.104-.896 2-2 2s-2-.896-2-2c0-7.937 6.457-14.394 14.394-14.394s14.394 6.457 14.394 14.394c0 1.105-.896 2-2 2z" fill="#3762cc"/></g><g><ellipse cx="171.999" cy="140.866" fill="#f9a7a7" rx="12.124" ry="6.768"/></g><g><path d="m146.903 146.268c1.14 0 2.064.97 1.963 2.106-.998 11.32-9.959 20.179-20.865 20.179-10.907 0-19.867-8.859-20.865-20.179-.1-1.136.823-2.106 1.963-2.106z" fill="#f9a7a7"/></g><g><path d="m128.001 170.554c-11.925 0-21.751-9.459-22.857-22.003-.096-1.088.275-2.177 1.018-2.988.753-.822 1.824-1.294 2.938-1.294h37.804c1.114 0 2.186.472 2.938 1.294.742.811 1.113 1.9 1.017 2.988-1.106 12.543-10.933 22.003-22.858 22.003zm-18.902-22.286c.952 10.395 9.065 18.286 18.902 18.286 9.815 0 17.915-7.856 18.867-18.286zm37.804 0h.01z" fill="#3762cc"/></g></g></svg>