<svg id="Layer_1" height="512" viewBox="0 0 256 256" width="512" xmlns="http://www.w3.org/2000/svg"><g><g><path d="m103.992 206.508h-42.834c-5.498 0-9.954-4.457-9.954-9.954v-149.785c0-24.173 19.596-43.769 43.769-43.769h9.018c24.173 0 43.769 19.596 43.769 43.769v115.969c.001 24.174-19.595 43.77-43.768 43.77z" fill="#4671c6"/></g><g><path d="m103.992 208.508h-42.834c-6.592 0-11.954-5.363-11.954-11.954v-149.785c0-25.237 20.532-45.769 45.77-45.769h9.019c25.237 0 45.769 20.532 45.769 45.769v115.97c-.001 25.237-20.533 45.769-45.77 45.769zm-9.018-203.508c-23.032 0-41.77 18.737-41.77 41.769v149.785c0 4.386 3.568 7.954 7.954 7.954h42.834c23.031 0 41.769-18.737 41.769-41.769v-115.97c0-23.032-18.738-41.769-41.769-41.769z" fill="#3762cc"/></g><g><path d="m196.393 253v-23.326c0-17.127-13.884-31.011-31.011-31.011h-74.762c-17.127 0-31.011 13.884-31.011 31.011v23.326z" fill="#f9a7a7"/></g><g><path d="m196.394 255h-136.785c-1.104 0-2-.896-2-2v-23.326c0-18.203 14.809-33.011 33.011-33.011h74.763c18.202 0 33.011 14.809 33.011 33.011v23.326c0 1.104-.896 2-2 2zm-134.785-4h132.784v-21.326c0-15.997-13.015-29.011-29.011-29.011h-74.762c-15.996 0-29.011 13.014-29.011 29.011z" fill="#3762cc"/></g><g><path d="m128 193.408c-8.006 0-15.68-1.403-22.805-3.96v11.316c0 12.595 10.21 22.805 22.805 22.805 12.595 0 22.805-10.21 22.805-22.805v-11.316c-7.126 2.557-14.8 3.96-22.805 3.96z" fill="#f9cfcf"/></g><g><path d="m128 225.568c-13.678 0-24.805-11.127-24.805-24.805v-11.316c0-.651.316-1.261.85-1.636.531-.375 1.215-.467 1.826-.247 3.117 1.119 6.343 2.006 9.589 2.638 4.11.8 8.329 1.205 12.54 1.205 7.579 0 15.024-1.293 22.129-3.843.611-.221 1.294-.128 1.826.247.533.375.85.985.85 1.636v11.316c0 13.678-11.127 24.805-24.805 24.805zm-20.805-33.339v8.535c0 11.472 9.333 20.805 20.805 20.805s20.805-9.333 20.805-20.805v-8.534c-6.725 2.11-13.71 3.178-20.805 3.178-4.467 0-8.942-.43-13.304-1.278-2.524-.492-5.037-1.129-7.501-1.901z" fill="#3762cc"/></g><g><path d="m63.491 105.556c0-45.491 31.537-69.969 64.509-69.969 32.444 0 64.509 23.862 64.509 69.969 11.739 0 20.089 9.236 20.089 19.77 0 9.998-7.159 19.77-22.051 19.77-7.056 27.976-32.38 48.687-62.547 48.687-30.167 0-55.492-20.71-62.547-48.687-14.75 0-22.051-9.658-22.051-19.77 0-10.489 8.298-19.77 20.089-19.77z" fill="#f9cfcf"/></g><g><ellipse cx="86.347" cy="146.845" fill="#f9a7a7" rx="11.477" ry="6.407"/></g><g><path d="m128 195.783c-30.005 0-56.145-19.956-64.097-48.72-15.446-.683-22.501-11.584-22.501-21.736 0-11.548 8.684-20.73 20.106-21.688.893-46 33.89-70.051 66.491-70.051 17.425 0 33.695 6.485 45.815 18.26 13.143 12.77 20.271 30.646 20.676 51.791 11.423.958 20.106 10.14 20.106 21.688 0 10.152-7.055 21.054-22.501 21.737-7.95 28.763-34.09 48.719-64.095 48.719zm0-158.196c-31.063 0-62.51 23.347-62.51 67.968 0 1.104-.896 2-2 2-10.143 0-18.088 7.806-18.088 17.77 0 8.845 6.199 17.771 20.05 17.771.916 0 1.715.623 1.939 1.511 7.005 27.776 31.928 47.176 60.608 47.176s53.604-19.399 60.608-47.176c.225-.888 1.023-1.511 1.939-1.511 13.851 0 20.05-8.925 20.05-17.77 0-9.965-7.945-17.771-18.088-17.771-1.104 0-2-.896-2-2 .002-46.698-32.402-67.968-62.508-67.968z" fill="#3762cc"/></g><g><path d="m173.232 132.426c-1.104 0-2-.896-2-2 0-5.367-4.366-9.733-9.733-9.733s-9.733 4.366-9.733 9.733c0 1.104-.896 2-2 2s-2-.896-2-2c0-7.573 6.161-13.733 13.733-13.733s13.733 6.161 13.733 13.733c0 1.104-.895 2-2 2z" fill="#3762cc"/></g><g><path d="m106.234 132.426c-1.104 0-2-.896-2-2 0-5.367-4.366-9.733-9.733-9.733s-9.733 4.366-9.733 9.733c0 1.104-.896 2-2 2s-2-.896-2-2c0-7.573 6.161-13.733 13.733-13.733s13.733 6.161 13.733 13.733c0 1.104-.895 2-2 2z" fill="#3762cc"/></g><g><ellipse cx="169.653" cy="146.845" fill="#f9a7a7" rx="11.477" ry="6.407"/></g><g><path d="m145.895 151.959c1.08 0 1.954.918 1.859 1.994-.945 10.716-9.428 19.103-19.753 19.103-10.325 0-18.808-8.387-19.753-19.103-.095-1.075.779-1.994 1.859-1.994z" fill="#f9a7a7"/></g><g><path d="m128.001 175.056c-11.345 0-20.692-8.997-21.745-20.927-.094-1.06.268-2.12.99-2.91.733-.801 1.776-1.26 2.861-1.26h35.788c1.084 0 2.127.459 2.859 1.26.724.79 1.085 1.85.991 2.909-1.05 11.931-10.398 20.928-21.744 20.928zm-17.744-21.097c.946 9.76 8.545 17.097 17.744 17.097 9.2 0 16.799-7.337 17.744-17.097zm35.639 0h.01z" fill="#3762cc"/></g><g><path d="m172.602 128.633c-.512 0-1.023-.195-1.414-.586-.781-.781-.781-2.047 0-2.828l4.924-4.923c.781-.781 2.047-.781 2.828 0s.781 2.047 0 2.828l-4.924 4.923c-.391.391-.903.586-1.414.586z" fill="#3762cc"/></g><g><path d="m83.398 128.633c-.512 0-1.023-.195-1.414-.586l-4.924-4.923c-.781-.781-.781-2.047 0-2.828s2.047-.781 2.828 0l4.924 4.923c.781.781.781 2.047 0 2.828-.39.391-.902.586-1.414.586z" fill="#3762cc"/></g><g><path d="m137.376 16.897c-4.973-.605-9.375 3.222-9.375 8.232l-.002.002v-.002c0-5.01-4.402-8.837-9.375-8.232-37.991 4.624-67.42 36.99-67.42 76.229v12.43h32.892c24.246 0 43.902-19.656 43.902-43.902v-.003l.002.003c0 24.246 19.656 43.902 43.902 43.902h32.893v-12.43c.001-39.239-29.428-71.605-67.419-76.229z" fill="#4671c6"/></g><g><path d="m204.796 107.556h-32.893c-20.646 0-38.153-13.7-43.903-32.488-5.752 18.788-23.258 32.488-43.903 32.488h-32.893c-1.104 0-2-.896-2-2v-12.43c0-39.789 29.74-73.414 69.179-78.214 2.955-.36 5.933.562 8.156 2.53.546.484 1.035 1.021 1.461 1.6.426-.579.915-1.116 1.462-1.6 2.223-1.969 5.193-2.892 8.156-2.53 39.438 4.801 69.178 38.426 69.178 78.214v12.43c0 1.104-.896 2-2 2zm-76.796-47.904c.656 0 1.285.323 1.663.89.219.329.338.717.338 1.112 0 23.105 18.797 41.902 41.902 41.902h30.893v-10.43c0-37.769-28.229-69.687-65.661-74.244h-.001c-1.817-.224-3.654.344-5.021 1.554-1.362 1.207-2.112 2.873-2.112 4.692 0 .53-.211 1.039-.586 1.414-.572.572-1.436.743-2.181.435-.747-.31-1.235-1.038-1.235-1.847 0-1.821-.75-3.488-2.112-4.694-1.367-1.209-3.198-1.777-5.021-1.554-37.434 4.557-65.662 36.475-65.662 74.244v10.43h30.893c23.105 0 41.902-18.797 41.902-41.902 0-.881.577-1.66 1.421-1.916.191-.058.387-.086.58-.086z" fill="#3762cc"/></g></g></svg>